<?xml version="1.0" encoding="UTF-8"?>
<svg id="Layer_1" xmlns="http://www.w3.org/2000/svg" xmlns:xlink="http://www.w3.org/1999/xlink" viewBox="0 0 900 900">
  <defs>
    <style>
      .cls-1 {
        fill: url(#linear-gradient-2);
      }

      .cls-2 {
        fill: url(#linear-gradient);
      }
    </style>
    <linearGradient id="linear-gradient" x1="227.42" y1="456.74" x2="722.3" y2="456.74" gradientUnits="userSpaceOnUse">
      <stop offset="0" stop-color="#ff0005"/>
      <stop offset="1" stop-color="#003bff"/>
    </linearGradient>
    <linearGradient id="linear-gradient-2" x1="227.42" y1="456.76" x2="722.3" y2="456.76" xlink:href="#linear-gradient"/>
  </defs>
  <path class="cls-2" d="M604.02,106.23c0,.91,0,1.82,0,2.73-30.61,0-61.21-.27-91.81.14-11.25.15-22.48,1.95-33.72,2.99-6.18.57-10.27,4.26-13.64,9.06-13.45,19.1-26.8,38.28-40.39,57.27-10.54,14.73-21.4,29.22-32.08,43.84-21.12,28.92-42.29,57.8-63.27,86.82-5.95,8.23-11.5,16.85-11.68,27.55-.16,9.77,5.37,16.1,15.12,16.48,14.4.57,28.84.41,43.25.68,11.48.22,23.02.05,34.43,1.09,10.54.97,12.01,5.41,5.47,13.58-.12.15-.25.3-.38.45-15.96,17.85-31.92,35.7-47.9,53.54-31.2,34.82-62.41,69.62-93.6,104.44-3.82,4.26-7.62,8.24-14.03,8.39-1.87.04-4.29,1.31-5.47,2.8-6.89,8.69-14.07,17.25-19.89,26.64-2.17,3.5-2.47,9.74-.9,13.63,2.65,6.57,17.98,9.67,24.73,6.85,4.32-1.81,9.18-3.24,13.81-3.26,16.37-.07,32.74.54,49.11.89,4.68.1,9.4-.17,14.02.39,8.65,1.04,11.2,5.93,6.91,13.5-9.22,16.26-18.49,32.51-28.17,48.5-11.08,18.31-22.69,36.29-33.95,54.49-12.29,19.85-24.62,39.68-36.58,59.73-5.45,9.13-10.78,18.47-14.77,28.27-2.96,7.28-.31,13.06,5.6,16.84,5.77,3.69,11.97,3.57,17.68-.09,5.72-3.68,11.45-7.48,16.54-11.96,27.47-24.22,54.64-48.78,82.11-73,27.31-24.08,54.86-47.91,82.3-71.84,13.22-11.52,26.44-23.04,39.66-34.56,21.15-18.42,42.38-36.74,63.41-55.28,11.25-9.92,22.4-19.97,33.1-30.46,4.84-4.75,7.77-11.01,4.61-18.1-3.22-7.24-9.09-10.18-16.97-9.87-7.59.3-15.21.28-22.81.19-8.95-.11-17.99.19-26.84-.89-8.52-1.05-9.69-5.09-4.43-11.66,1.22-1.52,2.34-3.13,3.71-4.51,20.43-20.59,40.6-41.45,61.42-61.64,20.42-19.79,41.52-38.89,62.3-58.3,3.72-3.48,7.28-6.91,13.11-6.59,1.81.1,4.01-1.55,5.57-2.92,17.12-15.04,34.02-30.32,51.25-45.23,8.36-7.23,9.47-16.99,10.55-26.83.21-1.9-.72-4.6-2.1-5.88-7.34-6.82-15.29-12.79-25.93-13-5.45-.1-10.91.33-16.37.43-19.49.34-38.99.68-58.48.88-1.55.02-3.11-1.03-4.66-1.58.53-1.14.8-2.53,1.62-3.39,18.11-19.09,36.36-38.06,54.37-57.24,2.42-2.58,3.77-6.17,5.59-9.32,1.72-2.97,2.87-6.47,5.19-8.85,10.45-10.76,21.32-21.11,31.85-31.79,5.61-5.68,11.23-11.42,16.18-17.66,9.17-11.56,3.78-25.96-10.26-26.79-5.05-.3-10.12-.56-15.18-.57-29.44-.05-58.87-.03-88.31-.03Z"/>
  <path class="cls-1" d="M273.82,526.89s62.41-69.62,93.6-104.44c15.98-17.83,31.93-35.69,47.9-53.54.13-.15.26-.29.38-.45,6.53-8.17,5.07-12.62-5.47-13.58-11.42-1.05-22.95-.88-34.43-1.09-14.42-.27-28.85-.11-43.25-.68-9.75-.38-15.28-6.71-15.12-16.48.17-10.7,5.73-19.32,11.68-27.55,20.98-29.02,42.15-57.9,63.27-86.82,10.68-14.62,21.54-29.12,32.08-43.84,13.59-19,26.94-38.17,40.39-57.27,3.37-4.79,7.46-8.49,13.64-9.06,11.24-1.04,22.47-2.84,33.72-2.99,30.6-.42,91.81-.14,91.81-.14l12.19-.96,76.12-1.74s10.12.27,15.18.57c14.04.83,19.43,15.23,10.26,26.79-4.95,6.24-16.18,17.66-16.18,17.66l-29.58,30.82-5.2,6.69-5.57,5.82-56.65,63.86-1.62,3.39,4.66,1.58s38.99-.54,58.48-.88c5.46-.1,10.92-.53,16.37-.43,10.64.2,18.59,6.18,25.93,13,1.38,1.28,2.09,3.97,2.1,5.88.06,11.28,4.23,16.77-10.55,26.83-19.1,13.01-23.13,13.93-44.93,34.03-1.53,1.41-4.96,4.47-9.29,7.87-4.59,3.6-11.98,9.35-15.71,12.83-20.79,19.42-41.88,38.51-62.3,58.3-20.82,20.18-41,41.04-61.42,61.64-1.36,1.38-2.49,2.99-3.71,4.51-5.26,6.57-4.09,10.62,4.43,11.66,8.85,1.09,17.88.78,26.84.89,7.6.1,15.22.11,22.81-.19,7.88-.31,13.74,2.63,16.97,9.87,3.16,7.09.23,13.36-4.61,18.1-10.7,10.49-21.85,20.54-33.1,30.46-21.03,18.55-42.26,36.87-63.41,55.28-13.22,11.52-26.45,23.03-39.66,34.56-27.45,23.93-54.99,47.75-82.3,71.84-27.47,24.22-54.64,48.78-82.11,73-5.08,4.48-10.82,8.29-16.54,11.96-5.7,3.67-11.9,3.79-17.68.09-5.92-3.78-8.57-9.56-5.6-16.84,3.99-9.81,9.33-19.14,14.77-28.27,11.96-20.05,24.29-39.88,36.58-59.73,11.26-18.2,22.87-36.18,33.95-54.49,9.68-15.99,18.95-32.23,28.17-48.5,4.29-7.57,1.74-12.46-6.91-13.5-4.62-.56-9.34-.29-14.02-.39-16.37-.35-32.74-.96-49.11-.89-4.63.02-14.66.82-19.34.72-15.85-.35-16.54,2.26-19.2-4.31-1.57-3.89-1.27-10.13.9-13.63"/>
</svg>